<?xml version="1.0" standalone="no"?>
<!DOCTYPE svg PUBLIC "-//W3C//DTD SVG 20010904//EN"
 "http://www.w3.org/TR/2001/REC-SVG-20010904/DTD/svg10.dtd">
<svg version="1.0" xmlns="http://www.w3.org/2000/svg"
 width="1280.000000pt" height="850.000000pt" viewBox="0 0 1280.000000 850.000000"
 preserveAspectRatio="xMidYMid meet">

<g transform="translate(0.000000,850.000000) scale(0.100000,-0.100000)"
fill="#000000" stroke="none">
<path d="M3025 8491 c11 -5 24 -6 28 -4 4 3 13 0 20 -6 8 -6 18 -6 27 -1 22
14 30 12 24 -5 -4 -10 0 -15 14 -15 15 0 19 5 15 20 -5 18 -13 20 -77 19 -46
0 -64 -3 -51 -8z"/>
<path d="M5615 8488 c6 -15 146 -94 159 -90 4 2 14 -2 22 -9 8 -6 20 -9 29 -6
8 4 21 0 29 -8 7 -8 16 -12 19 -9 3 4 16 -1 29 -10 12 -9 31 -16 41 -16 10 0
16 -4 13 -9 -3 -5 12 -11 33 -15 21 -3 50 -17 65 -31 15 -14 34 -25 42 -25 15
0 55 -20 64 -32 6 -8 57 -28 71 -28 5 0 9 10 9 23 0 21 -36 61 -87 94 -13 9
-21 19 -18 23 3 4 -13 26 -35 48 -27 26 -36 42 -28 45 8 3 6 6 -4 6 -10 1 -18
6 -18 12 0 6 -10 19 -22 30 -21 17 -42 18 -220 19 -154 0 -196 -3 -193 -12z"/>
<path d="M6581 8015 l-24 -13 22 -13 c11 -8 21 -19 21 -26 0 -7 7 -13 14 -13
8 0 41 -16 73 -35 55 -33 113 -46 113 -25 0 5 7 7 15 4 23 -9 19 24 -5 38 -11
7 -20 23 -20 36 0 13 -4 21 -9 17 -5 -3 -13 0 -16 6 -4 5 -13 8 -20 5 -7 -2
-22 2 -34 10 -29 21 -101 25 -130 9z"/>
<path d="M11556 7613 c-11 -3 -36 -15 -55 -27 -64 -39 -91 -46 -189 -52 -54
-2 -106 -7 -117 -11 -11 -3 -60 -35 -109 -70 -49 -35 -100 -70 -115 -79 -43
-26 -93 -100 -106 -159 -16 -65 -22 -315 -11 -405 8 -60 6 -70 -19 -120 -21
-42 -26 -61 -20 -89 4 -20 11 -58 15 -86 4 -27 13 -64 21 -82 11 -28 10 -40
-9 -100 -39 -120 -28 -178 54 -273 105 -122 152 -200 200 -327 13 -35 24 -78
24 -95 0 -39 -49 -137 -75 -150 -65 -33 -112 -107 -144 -225 -6 -22 -27 -65
-47 -93 -20 -29 -43 -72 -51 -97 -21 -60 -48 -76 -115 -68 -48 6 -55 10 -70
41 -10 19 -18 45 -18 57 0 46 -13 66 -53 85 -279 134 -256 126 -342 127 l-79
0 -9 -32 c-6 -18 -14 -33 -18 -33 -5 0 -9 -4 -9 -10 0 -5 -8 -18 -18 -28 -18
-18 -19 -17 -51 20 -18 21 -39 38 -47 38 -8 0 -14 5 -14 10 0 6 -7 10 -15 10
-8 0 -15 6 -15 14 0 8 -5 16 -12 18 -8 3 0 25 24 65 20 34 39 72 43 85 4 12
12 29 17 36 14 17 14 86 0 153 -11 51 -10 62 8 110 33 88 56 110 125 118 57 6
60 7 96 60 47 68 84 177 74 222 -4 18 -20 44 -36 59 -29 26 -29 27 -13 59 9
17 17 38 18 46 1 8 9 22 17 32 8 10 31 59 49 108 33 84 35 97 32 193 -1 72 3
120 14 159 30 104 4 165 -104 246 -72 53 -122 87 -127 87 -3 0 -45 18 -94 40
-62 28 -102 40 -134 40 -26 0 -66 7 -91 15 -77 26 -139 34 -184 24 -87 -19
-303 -140 -353 -196 -26 -30 -29 -41 -30 -106 0 -40 -4 -94 -9 -122 -4 -27
-15 -99 -24 -160 -9 -60 -19 -118 -22 -127 -4 -15 -50 -55 -95 -83 -9 -5 -38
-27 -65 -47 -27 -21 -59 -38 -70 -38 -32 0 -48 -24 -34 -49 6 -12 8 -21 5 -21
-3 0 9 -15 28 -34 19 -18 39 -53 46 -77 16 -55 27 -69 75 -94 50 -25 77 -62
87 -117 4 -24 14 -78 23 -120 18 -87 11 -154 -20 -195 -11 -14 -47 -36 -80
-50 -53 -21 -65 -30 -88 -72 -30 -56 -130 -162 -174 -185 -16 -8 -72 -29 -123
-45 -52 -17 -116 -45 -143 -63 -27 -18 -67 -45 -89 -60 -22 -15 -65 -35 -94
-43 -40 -12 -73 -33 -125 -78 -78 -68 -142 -152 -133 -175 8 -20 -5 -37 -17
-21 -6 9 -8 -6 -5 -44 3 -45 1 -57 -10 -53 -18 7 -16 -4 5 -27 9 -11 11 -17 4
-13 -11 7 -12 4 -3 -13 10 -18 9 -22 -11 -30 -13 -5 -24 -5 -26 0 -2 5 -10 9
-18 9 -9 0 -13 4 -9 9 3 6 -16 12 -42 15 -181 22 -213 40 -213 125 0 37 12 71
54 157 29 60 59 127 66 149 7 22 23 54 35 70 23 31 42 105 74 290 10 55 25
114 33 130 24 48 29 129 18 284 -19 254 -55 354 -168 468 -37 38 -80 75 -97
83 -16 8 -53 29 -82 47 -144 89 -197 97 -410 59 -81 -15 -165 -31 -185 -37
-57 -15 -183 -120 -229 -191 -47 -74 -112 -267 -129 -388 -14 -100 -23 -125
-47 -138 -24 -13 -38 -2 -96 81 -27 37 -66 79 -87 92 -21 13 -53 37 -72 53
-81 71 -211 121 -351 136 -212 23 -248 17 -350 -60 -39 -30 -77 -54 -84 -54
-13 0 -63 61 -63 76 0 13 -55 90 -93 131 -16 17 -55 42 -86 54 -31 12 -62 27
-69 32 -13 10 -55 35 -113 66 -50 28 -259 56 -490 66 -154 7 -124 11 -444 -59
-33 -7 -98 -25 -144 -40 -85 -27 -85 -27 -223 -15 -230 19 -293 -3 -449 -162
-118 -119 -145 -154 -154 -199 -11 -54 -47 -174 -56 -185 -12 -15 -36 -95 -42
-139 -5 -32 -1 -46 22 -80 34 -50 71 -163 70 -214 -2 -48 59 -261 83 -289 17
-21 39 -146 39 -228 0 -91 0 -101 3 -245 2 -115 -7 -146 -42 -155 -13 -3 -43
-23 -66 -45 -41 -38 -108 -70 -147 -70 -10 0 -34 -8 -53 -17 -60 -28 -66 -74
-71 -518 -2 -192 -8 -320 -14 -335 -14 -31 -56 -104 -87 -150 -13 -19 -26 -55
-30 -80 -3 -25 -12 -67 -20 -94 -8 -28 -14 -94 -14 -151 0 -96 -2 -104 -31
-151 -17 -27 -54 -76 -81 -109 -27 -33 -76 -94 -109 -135 l-59 -74 -2 -81 c-1
-44 -2 -91 -2 -105 -2 -49 40 -170 65 -186 5 -3 9 -14 9 -24 0 -10 6 -20 13
-23 6 -2 9 -8 5 -12 -5 -5 -18 4 -31 18 -12 15 -30 27 -39 27 -14 0 -32 33
-29 53 1 5 -3 6 -8 2 -6 -3 -13 7 -16 22 -4 15 -10 37 -15 48 -41 94 -38 147
25 425 12 54 45 287 50 359 3 42 10 112 15 156 17 139 20 168 26 240 6 71 58
358 94 520 38 172 82 250 179 316 27 19 52 42 54 51 10 36 -51 114 -133 171
-25 17 -69 52 -98 78 -29 27 -70 53 -90 59 -48 13 -211 13 -287 -1 -105 -19
-180 -25 -214 -18 -22 5 -55 28 -95 66 -82 81 -114 101 -177 113 -114 23 -125
44 -122 244 3 156 7 170 73 211 22 14 42 35 44 48 3 12 13 53 22 91 26 111 1
232 -54 255 -66 28 -74 41 -83 141 -5 52 -17 121 -28 155 -22 70 -21 59 -24
197 -2 74 -7 111 -17 123 -8 10 -46 33 -85 52 -64 32 -79 35 -180 39 -60 3
-116 7 -123 9 -7 3 -59 7 -115 10 -96 6 -109 4 -227 -30 -71 -20 -150 -51
-183 -70 -32 -19 -61 -35 -63 -35 -32 0 -148 -152 -191 -250 -27 -62 -33 -90
-42 -195 -11 -128 -29 -162 -104 -189 -101 -37 -248 -164 -292 -253 -39 -80
-64 -201 -65 -309 0 -105 42 -398 66 -452 44 -105 46 -107 89 -105 22 1 61 3
88 4 26 1 47 4 47 8 0 6 80 4 148 -3 23 -3 32 0 32 11 0 8 8 17 18 20 10 2 22
14 27 26 10 22 18 23 110 13 33 -4 69 -18 87 -33 18 -16 54 -10 43 7 -3 5 -2
10 4 10 6 0 8 7 5 15 -4 8 -1 15 6 15 6 0 10 6 7 13 -2 6 2 19 9 28 15 17 35
109 28 121 -11 17 62 13 80 -5 8 -6 23 -19 35 -27 28 -19 27 -29 -12 -81 -18
-24 -39 -56 -46 -71 -8 -16 -19 -28 -24 -28 -6 0 -19 -7 -28 -16 -12 -11 -36
-17 -66 -17 -26 0 -40 -2 -30 -4 25 -6 21 -23 -5 -23 -13 0 -32 -7 -42 -15
-11 -8 -28 -15 -38 -15 -11 0 -15 -5 -12 -15 4 -11 2 -13 -9 -10 -26 10 -31
-42 -7 -79 28 -46 25 -67 -12 -103 -34 -31 -58 -42 -118 -49 -173 -20 -194
-26 -232 -66 -40 -41 -46 -67 -29 -139 11 -46 -4 -80 -59 -139 -40 -42 -87
-127 -76 -138 8 -8 -24 -64 -65 -112 -52 -63 -91 -160 -95 -240 -1 -36 -7 -83
-13 -105 -7 -27 -11 -575 -11 -1659 l0 -1618 553 6 c303 4 556 11 560 15 4 4
11 103 16 220 5 117 12 216 17 221 5 5 360 11 789 15 429 3 933 10 1120 15
187 5 529 12 760 15 610 8 736 12 747 23 7 7 -17 64 -72 169 -191 363 -251
487 -248 507 3 24 69 64 126 77 45 10 62 -7 62 -62 0 -32 3 -36 20 -32 15 4
21 -1 26 -23 11 -47 32 -82 53 -89 11 -3 46 -51 80 -108 65 -112 99 -152 147
-172 31 -13 32 -14 40 -101 l8 -89 7 55 c8 66 16 87 35 94 10 4 19 -4 28 -24
l12 -31 12 26 c6 14 19 25 28 25 9 0 23 8 30 18 12 16 16 15 63 -10 55 -30 61
-26 61 35 0 34 33 97 50 97 5 0 10 6 10 14 0 16 67 133 81 142 16 9 10 -17
-10 -45 -11 -15 -23 -42 -28 -61 -5 -19 -13 -34 -19 -33 -10 2 -64 -81 -64
-99 0 -21 32 -98 41 -98 5 0 9 8 9 19 0 10 9 21 20 24 15 4 20 0 20 -14 0 -23
25 -25 34 -3 10 26 28 4 21 -27 -7 -32 13 -41 35 -15 19 24 42 8 35 -25 -5
-22 -3 -29 9 -29 8 0 19 7 24 16 14 24 33 7 26 -22 -7 -28 2 -31 27 -8 21 19
39 11 39 -17 0 -27 18 -24 49 10 21 23 31 27 45 19 10 -5 19 -8 20 -6 1 1 22
39 46 83 56 104 92 155 110 155 11 0 11 -3 2 -12 -15 -15 -16 -31 0 -22 7 4 8
3 4 -5 -4 -6 -11 -9 -16 -6 -4 3 -17 -11 -29 -30 -22 -39 -12 -48 14 -12 16
22 16 22 28 2 23 -38 213 -410 234 -460 12 -27 30 -66 41 -85 11 -19 35 -65
52 -102 20 -43 39 -70 53 -74 25 -8 519 -6 554 3 18 4 23 0 29 -24 4 -15 12
-31 18 -35 14 -10 645 -10 909 -1 l197 6 0 32 c0 32 0 32 63 38 103 10 374 17
937 22 294 3 607 10 695 15 88 5 243 15 345 20 102 6 289 17 415 25 127 8 451
17 720 21 270 3 504 7 520 8 29 1 30 -1 27 -37 l-3 -37 38 5 c97 14 409 35
728 50 193 9 387 19 433 22 l82 5 0 3488 c0 3171 -1 3488 -16 3494 -22 9 -211
6 -264 -3 -25 -5 -96 -23 -158 -42 -149 -43 -152 -41 -201 102 -31 90 -43 111
-86 154 -61 61 -136 102 -275 149 -102 35 -183 44 -244 29z m-11 -803 c3 -5
24 -10 46 -10 67 0 143 -62 185 -149 14 -31 27 -60 28 -66 1 -5 6 -17 11 -25
5 -8 9 -53 10 -100 0 -75 3 -88 23 -107 24 -25 27 -40 12 -63 -9 -13 -11 -13
-20 0 -6 10 -10 11 -10 3 0 -7 -4 -13 -10 -13 -5 0 -10 7 -10 15 0 8 -9 15
-20 15 -20 0 -29 6 -66 39 -12 11 -22 11 -57 0 -54 -16 -172 -12 -201 7 -13 8
-25 11 -29 8 -4 -4 -2 8 3 26 5 18 11 34 12 35 2 1 29 19 61 39 31 20 57 43
57 51 0 8 9 19 20 25 11 6 20 16 20 23 0 7 -4 6 -10 -3 -6 -9 -10 -10 -10 -3
0 6 4 14 9 18 5 3 9 19 9 35 -1 16 -5 27 -10 24 -4 -3 -8 -1 -8 5 0 6 -13 24
-30 41 -16 17 -30 36 -30 43 0 7 -9 25 -19 41 -11 16 -17 35 -14 42 6 16 39
19 48 4z m425 -310 c5 -34 -1 -58 -21 -81 l-22 -24 5 33 c3 22 0 32 -9 32 -17
0 -14 50 5 73 14 16 16 16 28 -1 7 -10 13 -24 14 -32z m-6740 -74 c0 -3 -4 -8
-10 -11 -5 -3 -10 -1 -10 4 0 6 5 11 10 11 6 0 10 -2 10 -4z m6864 -45 c37
-41 -11 -93 -65 -71 -39 17 -48 49 -19 72 29 23 62 23 84 -1z m-6994 -61 c0
-4 -7 -13 -16 -21 -10 -8 -14 -22 -10 -39 3 -15 -1 -36 -8 -46 -13 -18 -27
-19 -221 -17 -180 2 -211 5 -227 20 -29 26 -19 56 23 70 20 6 101 13 180 15
79 1 158 8 176 13 38 13 103 16 103 5z m43 -15 c-6 -17 -25 -15 -31 3 -2 7 5
12 17 12 14 0 19 -5 14 -15z m99 -32 c10 -9 18 -21 18 -26 0 -5 16 -24 35 -41
l35 -31 -20 -24 c-14 -16 -25 -21 -37 -16 -10 5 -26 7 -35 6 -19 -2 -43 34
-28 44 11 7 -3 50 -16 51 -5 0 -22 6 -39 13 -27 11 -28 13 -12 22 12 7 22 7
31 0 10 -8 17 -7 26 4 16 19 19 19 42 -2z m-765 -25 c6 -8 6 -29 0 -58 -6 -25
-12 -38 -14 -28 -2 9 -15 19 -29 22 -29 8 -33 42 -6 62 22 17 37 17 49 2z
m972 -64 c3 -2 -4 -10 -14 -18 -16 -11 -21 -11 -32 0 -23 22 -16 37 14 29 16
-4 30 -9 32 -11z m88 -30 c-4 -17 -6 -17 -12 4 -7 22 -25 31 -25 11 0 -5 -5
-7 -11 -4 -6 5 -4 12 8 20 15 11 20 12 31 1 8 -8 12 -22 9 -32z m-622 3 c19
-1 36 -6 37 -11 0 -6 2 -15 3 -21 2 -5 3 -16 4 -23 0 -7 6 -10 12 -7 6 4 8 14
4 23 -4 10 2 22 16 33 42 32 97 -19 83 -77 -4 -15 2 -26 20 -37 20 -13 25 -25
24 -52 -1 -27 -5 -35 -17 -33 -9 1 -22 -1 -29 -6 -9 -5 -18 -2 -26 9 -12 17
-13 17 -20 0 -5 -14 -9 -15 -21 -5 -12 10 -18 10 -31 -1 -13 -11 -17 -10 -25
3 -9 16 -12 15 -44 -3 -21 -13 -32 -26 -28 -32 4 -7 -1 -6 -10 2 -9 7 -17 19
-17 25 0 6 -5 18 -10 26 -8 13 -11 13 -22 -2 -10 -14 -22 -16 -50 -12 -21 4
-38 11 -38 17 0 6 -6 2 -14 -9 -12 -15 -17 -17 -27 -6 -7 6 -24 12 -37 12 -21
0 -23 4 -20 38 2 29 7 37 23 38 38 2 39 4 12 32 l-28 29 20 25 c28 35 78 36
93 2 9 -18 9 -27 0 -36 -16 -16 -15 -48 1 -48 6 0 19 5 27 10 13 9 13 12 0 23
-9 7 -14 25 -12 45 3 30 6 32 43 32 22 0 39 5 39 11 0 8 4 8 15 -1 8 -6 30
-12 50 -13z m655 8 c0 -8 -2 -15 -4 -15 -2 0 -6 7 -10 15 -3 8 -1 15 4 15 6 0
10 -7 10 -15z m-940 -75 c0 -5 -2 -10 -4 -10 -3 0 -8 5 -11 10 -3 6 -1 10 4
10 6 0 11 -4 11 -10z m-160 -70 c0 -11 -4 -20 -9 -20 -7 0 -8 17 -2 38 4 10
11 -2 11 -18z m-592 -141 c-1 -108 -10 -129 -52 -129 -13 0 -37 -5 -55 -11
-45 -16 -88 3 -93 41 -2 16 0 36 4 44 6 10 5 16 -2 16 -13 0 -13 50 0 70 8 13
10 12 10 -2 0 -10 5 -18 11 -18 7 0 9 10 5 24 -6 24 -4 25 39 21 24 -2 44 0
44 3 -4 26 3 34 26 30 14 -3 28 -1 31 3 3 5 11 9 19 9 11 0 14 -21 13 -101z
m3552 72 c0 -5 14 -12 30 -16 30 -7 40 -29 18 -39 -7 -3 -2 -3 12 0 14 4 27 9
30 13 8 9 50 12 50 3 0 -4 -5 -13 -12 -20 -7 -7 -8 -12 -4 -12 5 0 17 10 27
22 14 15 19 17 19 6 0 -8 -13 -26 -28 -41 -29 -28 -53 -37 -32 -13 9 12 8 15
-8 13 -12 0 -18 -6 -15 -14 3 -9 0 -11 -10 -7 -9 3 -18 12 -21 21 -4 9 -13 13
-22 9 -8 -3 -35 -1 -60 5 -51 13 -62 44 -19 55 14 3 25 10 25 15 0 5 5 9 10 9
6 0 10 -4 10 -9z m196 -59 c-21 -20 -27 -22 -22 -9 3 10 6 22 6 27 0 9 32 19
39 13 3 -2 -8 -16 -23 -31z m-2166 -29 c16 -29 26 -54 22 -57 -5 -3 -27 -1
-50 5 -23 5 -45 9 -49 8 -23 -4 -33 3 -33 21 0 21 15 27 25 10 4 -7 13 -7 25
0 15 8 18 17 13 42 -9 46 13 32 47 -29z m2234 24 c7 -6 6 -7 -4 -4 -8 2 -16
12 -17 23 -2 13 -1 15 4 4 3 -8 11 -19 17 -23z m-2374 -65 c0 -2 -11 -1 -25 2
-19 5 -23 3 -19 -9 4 -8 16 -15 28 -15 12 0 31 -6 41 -14 11 -8 24 -12 30 -10
17 7 48 -54 41 -80 -4 -17 2 -32 20 -52 20 -21 24 -32 17 -43 -8 -13 -33 -16
-143 -16 -72 0 -134 3 -137 8 -2 4 -12 3 -21 -2 -9 -4 -37 -7 -62 -5 -25 2
-63 5 -85 7 -37 2 -40 5 -40 32 -1 17 -4 40 -9 53 -10 30 1 62 20 55 27 -10
15 26 -13 39 -16 8 -29 23 -31 36 -3 23 -1 23 55 21 32 -1 72 -6 88 -11 37
-12 122 -17 152 -11 18 4 22 11 19 37 -2 17 -2 34 0 38 5 7 74 -50 74 -60z
m-522 4 c10 -11 -31 -46 -55 -46 -20 0 -23 -5 -23 -35 0 -37 15 -49 17 -14 3
30 8 33 32 12 25 -21 27 -36 6 -53 -12 -10 -19 -10 -27 -2 -23 23 -28 11 -19
-40 0 -5 14 -8 30 -8 40 0 59 -25 31 -40 -11 -6 -25 -8 -30 -5 -5 3 -36 6 -68
6 -68 1 -97 13 -69 30 20 12 22 40 5 57 -7 7 -11 27 -10 46 1 19 -3 38 -9 41
-14 9 39 45 56 39 6 -3 17 2 24 10 9 10 26 14 58 11 25 -2 48 -6 51 -9z m92
-2 c0 -2 -9 -4 -21 -4 -11 0 -18 4 -14 10 5 8 35 3 35 -6z m-309 -50 c-4 -21
-3 -117 1 -149 2 -15 -4 -21 -24 -23 l-27 -3 0 72 c0 40 -4 76 -10 82 -14 14
-63 -35 -55 -56 3 -9 10 -14 15 -11 5 3 9 1 9 -3 0 -5 -9 -14 -20 -21 -17 -10
-21 -10 -26 1 -3 8 -4 18 -3 23 5 29 -4 35 -15 10 -8 -18 -16 -24 -20 -17 -4
6 -15 11 -25 11 -24 0 -29 65 -5 74 9 3 19 4 24 1 4 -3 10 1 13 9 4 9 20 12
60 9 30 -2 58 0 61 5 3 5 15 8 28 7 17 -2 22 -7 19 -21z m989 -24 c14 0 36 -9
50 -20 14 -11 32 -20 41 -20 9 0 33 -7 53 -15 31 -13 37 -20 34 -41 -2 -21
-13 -30 -53 -45 -55 -21 -120 -25 -130 -8 -4 5 -17 9 -28 8 -43 -3 -54 1 -34
12 9 5 22 7 27 4 26 -16 27 10 2 57 -18 35 -23 52 -15 55 7 2 9 12 6 21 -5 14
-3 15 8 5 7 -7 24 -13 39 -13z m1969 -85 c0 -28 7 -65 17 -84 15 -30 16 -41 5
-80 -14 -51 -27 -63 -56 -55 -43 13 -48 24 -40 99 4 38 8 91 9 116 1 57 20 83
46 66 15 -9 19 -23 19 -62z m-3140 -8 c-3 -27 2 -37 20 -37 11 0 21 5 23 12 5
15 28 1 28 -18 0 -8 -6 -14 -14 -14 -7 0 -34 -3 -60 -6 -39 -6 -46 -4 -46 10
0 9 7 19 16 23 8 3 13 12 10 20 -4 8 -3 19 0 24 7 12 25 1 23 -14z m381 3 c0
-5 -7 -10 -15 -10 -8 0 -15 5 -15 10 0 6 7 10 15 10 8 0 15 -4 15 -10z m1942
-42 c17 -15 34 -57 43 -111 12 -74 44 -141 79 -164 25 -16 38 -37 55 -85 12
-34 32 -85 43 -113 46 -111 67 -184 74 -257 6 -68 4 -80 -15 -111 -15 -25 -20
-44 -16 -64 l6 -28 -20 24 c-12 13 -21 31 -21 40 0 9 -20 37 -45 61 -24 24
-43 46 -40 48 2 3 -4 17 -15 32 -22 31 -99 67 -109 51 -11 -18 -94 -31 -198
-31 -85 0 -103 3 -103 15 0 8 -4 15 -10 15 -12 0 -2 54 18 99 12 25 29 40 68
58 64 29 97 66 119 134 21 61 16 103 -21 183 -31 68 -28 102 17 170 32 48 60
58 91 34z m-2577 -38 c0 -10 -12 -16 -37 -17 -40 -3 -41 -3 -33 19 8 19 70 18
70 -2z m-99 -17 c-10 -10 -19 5 -10 18 6 11 8 11 12 0 2 -7 1 -15 -2 -18z
m3212 1 c49 -4 82 -11 82 -18 -2 -43 -118 -106 -209 -113 -47 -4 -61 -1 -84
17 -35 28 -34 58 4 99 28 31 33 33 77 27 26 -3 84 -9 130 -12z m613 -75 c22
-11 25 -42 7 -57 -20 -15 -75 -24 -106 -18 -26 6 -105 69 -97 78 9 9 179 7
196 -3z m4224 -29 c4 2 32 -19 63 -46 30 -27 74 -62 96 -79 23 -16 43 -32 46
-36 8 -10 148 -79 162 -79 16 -1 68 -46 68 -59 0 -5 -15 -20 -32 -32 -18 -13
-49 -36 -68 -51 -57 -47 -59 -48 -66 -48 -3 0 -4 6 -1 14 3 8 3 16 -1 18 -4 2
-14 17 -23 33 -9 18 -22 29 -32 27 -9 -2 -17 2 -17 8 0 5 -7 10 -15 10 -8 0
-15 5 -15 10 0 6 -7 10 -15 10 -8 0 -15 4 -15 9 0 5 -9 11 -21 14 -11 3 -19
11 -17 19 1 7 -21 36 -50 65 -66 65 -119 183 -82 183 6 0 10 8 10 18 0 13 2
14 9 4 4 -8 12 -13 16 -12z m-4605 -261 c0 -5 11 -9 25 -9 30 0 53 -36 35 -54
-6 -6 -39 -11 -73 -11 -47 1 -73 7 -106 26 -52 29 -68 55 -28 45 14 -3 28 -2
31 3 7 11 116 12 116 0z m-2084 -94 c10 -24 -26 -76 -63 -91 -46 -20 -165 -22
-225 -4 -59 18 -65 42 -10 39 20 -1 46 2 57 6 53 18 101 40 106 48 3 4 26 14
50 21 46 14 75 7 85 -19z m-441 -97 c22 -29 45 -56 52 -61 29 -18 44 -41 41
-64 -3 -23 -6 -24 -105 -29 -80 -4 -109 -1 -132 11 -17 8 -46 15 -65 15 -19 0
-38 5 -41 10 -3 6 0 10 8 10 7 0 28 29 46 65 18 36 37 65 42 65 5 0 20 13 35
29 24 27 27 28 52 15 15 -7 45 -37 67 -66z m-387 17 c23 -8 12 -22 -27 -35
-45 -15 -154 -9 -176 10 -32 27 -6 36 93 32 53 -2 103 -5 110 -7z m882 -38 c0
-56 -33 -101 -62 -86 -11 6 -28 19 -38 29 -19 19 -18 20 37 60 31 22 58 40 60
40 1 0 3 -19 3 -43z m4104 8 c6 -17 -22 -35 -53 -35 -26 0 -23 20 4 36 28 17
42 16 49 -1z m-580 -14 c7 -6 16 -8 20 -3 4 4 12 -1 17 -10 5 -10 15 -15 22
-12 7 2 22 -4 32 -16 10 -11 22 -20 26 -20 13 0 89 -78 89 -91 0 -6 7 -9 15
-5 8 3 15 1 15 -4 0 -5 7 -7 15 -4 8 4 22 0 31 -7 41 -34 184 -17 300 36 33
15 69 31 82 36 12 5 22 13 22 18 0 17 86 60 118 59 24 -1 32 -6 32 -20 0 -10
3 -18 8 -18 12 0 32 -52 32 -82 0 -15 -5 -28 -11 -28 -5 0 -8 -4 -4 -10 3 -5
12 -7 20 -3 8 3 15 0 15 -6 0 -7 -6 -14 -14 -17 -14 -5 -15 -14 -3 -44 3 -8 5
-22 5 -30 -1 -8 2 -32 6 -52 3 -20 3 -39 -2 -42 -15 -9 23 -146 40 -146 5 0 8
-5 8 -11 0 -5 -4 -7 -10 -4 -5 3 -10 1 -10 -4 0 -6 4 -11 8 -11 4 0 13 -14 19
-31 8 -21 17 -30 27 -26 10 4 16 -5 22 -31 4 -20 8 -39 9 -42 0 -3 6 -15 13
-27 12 -21 9 -27 -10 -24 -4 0 -5 -8 -3 -19 2 -11 0 -21 -6 -21 -5 -1 -13 -3
-19 -4 -5 -1 -16 -3 -22 -4 -8 -1 -14 -18 -15 -46 -1 -36 -7 -50 -27 -66 -15
-11 -24 -25 -20 -30 3 -5 -5 -13 -18 -18 -18 -7 -27 -4 -44 15 -26 29 -37 31
-29 3 7 -20 6 -20 -25 -4 -22 11 -36 13 -42 7 -6 -6 -17 -8 -24 -5 -8 3 -14 0
-14 -6 0 -6 -7 -11 -16 -11 -12 0 -14 -5 -9 -17 4 -10 9 -29 10 -43 3 -36 4
-37 15 -20 8 13 10 12 10 -2 0 -10 -7 -18 -15 -18 -16 0 -21 -15 -7 -23 4 -2
1 -2 -7 0 -7 2 -29 1 -47 -3 -24 -4 -34 -12 -34 -25 0 -11 -5 -19 -11 -19 -5
0 -7 -5 -3 -11 4 -6 10 -27 14 -45 7 -31 6 -34 -16 -34 -15 0 -24 -6 -24 -15
0 -8 -4 -15 -10 -15 -5 0 -10 5 -10 11 0 8 -5 7 -15 -1 -12 -10 -21 -10 -41
-1 -23 10 -26 10 -20 -4 3 -10 2 -13 -4 -10 -21 13 -99 13 -104 -1 -6 -17 -45
-7 -73 19 -27 24 -75 116 -67 128 3 5 1 9 -4 9 -5 0 -15 20 -22 45 -7 25 -16
48 -21 50 -19 12 -109 218 -109 251 0 48 -24 83 -53 76 -12 -3 -19 -2 -15 2 9
10 -40 51 -132 111 -41 27 -81 55 -89 62 -7 8 -29 22 -50 32 -42 22 -70 46
-93 79 -15 22 -15 27 10 75 34 67 61 104 140 193 17 20 32 41 32 45 0 5 3 8 8
7 4 -1 22 13 41 30 19 18 39 31 46 28 6 -2 17 -1 24 3 16 10 58 6 75 -8z m176
5 c0 -2 -9 -6 -20 -9 -11 -3 -18 -1 -14 4 5 9 34 13 34 5z m-4682 -92 c36 -6
40 -14 15 -36 -46 -40 -154 -19 -158 31 -2 21 1 22 54 16 31 -3 71 -8 89 -11z
m7569 0 c-3 -3 -12 -4 -19 -1 -8 3 -5 6 6 6 11 1 17 -2 13 -5z m47 -26 c-7
-11 -62 -10 -69 2 -4 6 10 9 34 8 22 -1 38 -5 35 -10z m39 -22 c-37 -32 -104
-59 -116 -47 -5 5 6 11 27 15 19 4 39 12 43 19 10 15 44 36 61 36 8 1 1 -10
-15 -23z m-107 -8 c4 -5 0 -8 -8 -8 -9 0 -18 -6 -20 -12 -3 -8 -9 -6 -16 7 -9
18 -8 21 13 20 13 0 27 -3 31 -7z m-6945 -11 c8 -7 23 -24 33 -39 17 -26 17
-27 -6 -41 -30 -19 -116 -37 -179 -37 -52 0 -59 13 -13 24 38 10 131 79 126
94 -5 15 18 15 39 -1z m1227 -44 c2 -42 -16 -73 -29 -51 -9 14 -1 56 14 76 13
17 14 16 15 -25z m6193 9 c-7 -2 -18 1 -23 6 -8 8 -4 9 13 5 13 -4 18 -8 10
-11z m-1 -52 c11 -8 7 -9 -15 -4 -37 8 -45 14 -19 14 10 0 26 -5 34 -10z
m-6262 -47 c-13 -21 -28 -47 -34 -58 -6 -10 -17 -21 -24 -23 -12 -4 -11 0 1
19 9 13 22 35 30 49 19 34 41 61 46 56 3 -2 -6 -22 -19 -43z m495 5 c69 -17
217 -138 261 -212 52 -89 70 -230 40 -305 -12 -30 -25 -43 -54 -55 -32 -13
-37 -18 -33 -40 6 -31 6 -31 -37 -9 -36 18 -100 25 -100 11 0 -5 -6 -6 -12 -2
-7 4 -5 -2 5 -13 16 -18 16 -26 5 -67 -9 -35 -17 -46 -33 -46 -11 -1 -42 -3
-70 -5 -205 -16 -192 -17 -199 8 -10 36 -7 74 7 85 6 5 39 13 72 18 l60 8 -45
7 c-84 14 -149 10 -190 -11 -45 -23 -53 -11 -15 24 31 29 32 46 3 46 l-21 0
23 20 c13 11 28 20 34 20 11 0 76 69 76 82 0 4 -4 9 -9 13 -12 7 -148 -78
-174 -109 -10 -11 -16 -15 -12 -7 6 10 2 11 -15 6 -15 -5 -20 -4 -16 4 5 7 1
9 -9 5 -20 -8 -43 48 -52 125 -11 112 44 219 169 325 77 65 101 76 183 85 62
8 94 6 158 -11z m5757 -14 c0 -2 -9 -4 -20 -4 -11 0 -20 4 -20 9 0 5 9 7 20 4
11 -3 20 -7 20 -9z m-7387 -10 c9 -10 -4 -34 -19 -34 -8 0 -14 -4 -14 -8 0 -5
-11 -14 -25 -20 -25 -12 -33 -36 -15 -47 5 -3 31 3 56 14 26 12 52 21 59 21 8
0 15 6 18 13 8 24 19 -2 24 -62 3 -33 9 -59 12 -56 13 8 3 -72 -12 -101 -27
-51 -93 -110 -139 -124 -49 -14 -308 -22 -308 -9 0 5 -9 9 -19 9 -22 0 -93 59
-85 71 2 4 0 10 -6 14 -21 13 -9 23 19 15 16 -4 65 -11 109 -15 141 -11 295
26 355 87 17 18 17 18 0 24 -10 3 -28 9 -40 14 -12 5 -51 5 -90 -1 -106 -15
-138 -13 -177 11 -45 27 -45 43 -1 59 47 17 44 35 -7 51 -44 14 -70 29 -52 31
5 0 45 2 89 3 56 2 93 9 125 23 42 20 129 30 143 17z m7382 -44 l20 -9 -20 0
c-11 0 -29 4 -40 9 l-20 9 20 0 c11 0 29 -4 40 -9z m-11 -58 c3 -5 -8 -6 -25
-4 -16 2 -29 6 -29 8 0 8 49 4 54 -4z m-5 -58 c2 -2 -12 -4 -32 -4 -20 0 -37
4 -37 10 0 8 58 3 69 -6z m-5332 -41 c-3 -10 -5 -2 -5 17 0 19 2 27 5 18 2
-10 2 -26 0 -35z m5293 -18 c0 -2 -9 -3 -19 -2 -11 0 -18 5 -15 9 4 6 34 0 34
-7z m-23 -51 c-3 -3 -12 -4 -19 -1 -8 3 -5 6 6 6 11 1 17 -2 13 -5z m-4817
-79 c19 -2 42 -4 52 -4 9 -1 25 -15 36 -33 20 -32 20 -32 1 -59 -10 -15 -19
-31 -19 -36 0 -5 -9 -15 -20 -23 -11 -8 -20 -25 -20 -38 0 -22 1 -23 83 -17
80 5 84 5 149 -30 101 -54 133 -127 92 -207 -15 -29 -15 -33 17 -102 18 -39
43 -79 55 -89 32 -25 38 -51 20 -86 -16 -30 -26 -34 -174 -87 -29 -10 -61 -26
-72 -36 -26 -25 -36 -116 -19 -176 13 -43 16 -168 7 -262 -2 -29 0 -35 17 -36
44 -1 83 22 142 84 l62 64 25 -25 c52 -52 21 -116 -71 -148 -46 -16 -169 -17
-184 -2 -6 6 -28 9 -48 6 l-36 -4 24 21 c13 11 22 22 20 24 -2 2 -40 -13 -84
-33 -76 -36 -224 -88 -310 -110 -22 -6 -74 -19 -115 -31 -141 -37 -258 -23
-349 44 -72 53 -91 99 -91 220 0 115 11 142 74 186 54 36 64 37 76 5 13 -35
23 -31 45 18 20 41 22 42 105 64 47 12 100 22 118 22 24 1 40 9 55 27 45 54
67 70 159 110 l93 40 6 105 c4 57 11 116 17 130 6 15 9 29 6 32 -9 9 -21 107
-13 107 5 0 9 12 8 28 0 23 -1 24 -8 7 -7 -16 -9 -13 -13 18 -5 46 -4 47 55
74 28 14 47 29 47 40 0 9 -3 14 -6 10 -3 -3 -26 3 -51 14 -51 22 -82 17 -111
-16 -18 -21 -23 -22 -65 -11 -49 13 -94 47 -108 84 -10 27 9 80 23 60 6 -10 8
-10 8 0 0 9 7 11 20 7 12 -4 20 -2 20 5 0 6 5 8 10 5 6 -3 10 -2 10 3 0 6 18
19 40 29 38 20 67 21 190 8z m4600 -86 c3 -4 18 -13 33 -18 16 -6 26 -15 22
-20 -3 -5 4 -12 15 -16 11 -4 20 -15 20 -26 0 -11 7 -22 15 -25 11 -5 12 -11
4 -26 -7 -14 -7 -23 1 -34 10 -11 9 -15 -5 -20 -11 -5 -15 -14 -11 -28 4 -16
-1 -24 -17 -31 -12 -6 -21 -17 -19 -26 1 -9 -12 -22 -34 -32 -19 -10 -33 -21
-29 -26 11 -18 -81 -35 -143 -26 -42 5 -51 11 -67 41 -14 26 -16 37 -7 46 7 7
12 19 12 28 0 8 20 26 45 39 25 13 45 30 45 38 0 8 -11 29 -25 47 -14 18 -25
40 -25 49 0 9 11 24 25 33 14 9 25 22 25 30 0 22 106 25 120 3z m424 -199 c45
-17 56 -49 67 -186 8 -108 7 -130 -6 -150 -10 -16 -24 -23 -40 -22 -14 1 -25
6 -25 10 0 4 -6 8 -14 8 -22 0 -127 101 -142 137 -8 17 -18 35 -24 38 -8 5 -7
11 1 21 6 7 9 20 6 27 -3 7 4 19 14 25 10 7 19 18 19 26 0 8 11 21 25 30 14 9
23 21 20 26 -3 5 9 11 27 13 18 2 36 5 40 5 4 1 18 -2 32 -8z m-6971 -48 c15
-2 16 -6 7 -22 -12 -22 -66 -28 -72 -8 -3 7 -11 9 -24 4 -19 -8 -19 -8 1 -17
l20 -9 -20 2 c-34 3 -65 -12 -65 -32 0 -10 -2 -24 -5 -32 -10 -25 47 -37 91
-21 55 21 100 27 109 14 3 -7 7 -35 7 -64 1 -49 14 -85 45 -115 7 -7 13 -22
13 -31 0 -10 7 -35 15 -54 8 -20 15 -48 15 -62 0 -27 -1 -27 115 -70 45 -17
81 -39 101 -61 29 -32 36 -34 144 -49 119 -15 143 -27 162 -75 l9 -25 20 27
20 28 38 -20 c83 -42 116 -123 109 -269 -4 -87 -17 -111 -88 -160 -75 -51
-123 -64 -240 -64 -58 0 -123 6 -145 13 -22 6 -60 15 -85 20 -25 4 -90 17
-145 28 -122 26 -189 29 -279 13 -117 -22 -246 17 -246 74 0 18 52 75 69 75
12 0 10 -27 -2 -47 -5 -8 -3 -13 6 -13 8 0 29 -13 48 -29 35 -31 69 -41 109
-31 33 8 38 50 11 96 -24 40 -29 160 -10 228 15 53 3 142 -22 167 -11 11 -24
17 -29 14 -6 -4 -10 -1 -10 4 0 6 -7 11 -15 11 -9 0 -46 10 -83 21 -119 38
-143 89 -63 139 40 26 101 113 101 147 0 10 -6 27 -14 38 -17 25 -14 94 5 106
8 5 10 9 6 9 -20 0 27 46 78 74 54 31 89 36 188 28z m1072 -78 c-6 -2 -37 -7
-69 -12 -33 -4 -61 -12 -63 -18 -4 -13 150 -6 155 7 6 14 29 10 36 -6 3 -8 -3
-19 -14 -25 -21 -11 -159 -14 -209 -4 -40 8 -41 34 -1 34 22 0 30 5 30 18 0
15 9 17 72 13 40 -2 68 -5 63 -7z m5688 -208 c16 -13 15 -14 -10 -19 -17 -3
-41 2 -63 14 l-35 18 45 0 c25 0 53 -6 63 -13z m-5460 -33 c2 -5 8 -26 12 -48
7 -39 6 -39 -13 -22 -18 17 -20 17 -26 1 -13 -34 -17 -5 -5 35 12 39 23 50 32
34z m47 -38 c0 -25 -4 -45 -10 -45 -11 0 -14 73 -3 83 11 12 13 8 13 -38z m47
37 c6 -4 12 -27 11 -51 0 -43 -1 -44 -14 -20 -10 18 -13 20 -14 7 0 -10 -4
-18 -10 -18 -5 0 -10 20 -10 45 0 45 10 54 37 37z m93 -13 c0 -6 -7 -9 -14 -6
-11 5 -16 -4 -19 -36 l-4 -42 -1 48 c-2 41 1 47 18 47 11 0 20 -5 20 -11z m59
-3 c19 -23 10 -71 -14 -71 -26 0 -44 47 -25 69 16 20 24 20 39 2z m141 -13 c0
-13 -3 -13 -15 -3 -12 10 -16 9 -21 -3 -8 -21 5 -40 22 -33 8 3 14 -1 14 -10
0 -23 -41 -13 -51 12 -5 14 -2 29 7 42 16 23 44 19 44 -5z m-68 5 c2 -6 2 -24
0 -40 -4 -26 -5 -27 -18 -11 -12 17 -13 16 -14 -7 -1 -39 -20 -3 -20 38 0 27
4 32 24 32 13 0 26 -5 28 -12z m128 2 c0 -5 -7 -10 -15 -10 -8 0 -15 -5 -15
-11 0 -5 5 -7 10 -4 6 3 10 1 10 -4 0 -6 -6 -11 -12 -11 -7 0 -4 -8 7 -16 20
-15 19 -15 -5 -12 -21 2 -26 9 -28 41 -3 34 -1 37 22 37 14 0 26 -4 26 -10z
m-260 -20 c0 -5 -4 -10 -10 -10 -5 0 -10 5 -10 10 0 6 5 10 10 10 6 0 10 -4
10 -10z m2207 -52 c-3 -8 -6 -5 -6 6 -1 11 2 17 5 13 3 -3 4 -12 1 -19z m57
-24 c-6 -3 -9 -16 -6 -29 5 -27 -7 -32 -26 -13 -23 23 -14 48 16 47 15 0 22
-3 16 -5z m26 -50 c0 -8 -5 -12 -10 -9 -6 4 -8 11 -5 16 9 14 15 11 15 -7z
m2550 -61 c0 -2 -5 -13 -11 -24 -8 -16 -13 -18 -25 -8 -22 18 -17 34 11 35 14
1 25 0 25 -3z m547 -159 c-3 -3 -12 -4 -19 -1 -8 3 -5 6 6 6 11 1 17 -2 13 -5z
m-837 -29 c0 -8 -4 -15 -10 -15 -5 0 -7 7 -4 15 4 8 8 15 10 15 2 0 4 -7 4
-15z m57 -2 c2 -6 -8 -10 -22 -10 -14 0 -25 4 -25 9 0 5 5 6 10 3 6 -3 10 -1
10 5 0 14 22 8 27 -7z m-6304 -280 c-7 -2 -19 -2 -25 0 -7 3 -2 5 12 5 14 0
19 -2 13 -5z m-533 -43 c8 -14 8 -20 0 -20 -6 0 -9 -4 -5 -9 8 -15 -8 -20 -32
-10 -20 7 -22 11 -11 34 14 30 33 32 48 5z m-959 -412 c19 -6 36 -14 39 -18 3
-3 22 -16 43 -29 20 -12 37 -26 37 -30 0 -4 9 -17 20 -29 24 -26 69 -29 127
-8 60 21 72 4 16 -24 -63 -31 -168 -137 -194 -194 -24 -55 -52 -64 -42 -13 4
17 7 42 8 54 0 11 3 19 6 18 3 -2 14 15 24 38 10 23 23 45 29 49 8 5 7 8 -1 8
-7 0 -10 7 -7 15 7 17 -11 21 -22 4 -3 -6 -1 -15 6 -19 7 -5 8 -10 2 -14 -5
-3 -15 1 -22 9 -7 8 -18 15 -24 15 -20 0 -66 24 -66 35 0 6 -5 3 -10 -5 -8
-12 -13 -13 -30 -2 -11 6 -24 12 -30 12 -5 0 -18 8 -29 19 -10 10 -23 20 -28
22 -6 2 -14 14 -17 27 -7 21 -6 21 21 11 23 -8 26 -8 16 2 -20 21 -16 42 7 36
11 -3 20 -1 20 3 0 8 20 14 56 19 6 0 26 -4 45 -11z m2061 -69 c-2 -7 0 -24 3
-37 5 -22 10 -24 41 -19 19 3 32 2 29 -3 -3 -4 13 -17 35 -27 22 -10 40 -23
40 -29 0 -14 75 -48 88 -40 5 3 9 -6 8 -19 -1 -14 -5 -26 -9 -26 -17 -3 -107
53 -107 65 0 7 -17 24 -37 38 -35 22 -42 23 -88 13 -43 -10 -53 -17 -76 -55
-15 -25 -28 -48 -28 -51 -1 -4 20 -12 45 -18 57 -15 106 -37 263 -123 68 -38
125 -68 125 -68 1 0 10 16 20 35 18 33 18 36 2 80 -14 35 -27 50 -57 65 -21
11 -39 25 -39 30 0 14 11 12 55 -10 28 -14 41 -17 46 -8 4 6 7 1 7 -13 0 -13
6 -43 13 -67 13 -41 12 -45 -20 -105 -54 -103 -82 -147 -92 -147 -5 0 -9 -7
-9 -15 0 -8 -4 -15 -8 -15 -4 0 -16 -14 -26 -31 -26 -43 -72 -69 -126 -69
l-46 0 -38 -78 c-21 -43 -47 -89 -58 -103 -11 -13 5 24 36 83 l55 106 -150 86
c-83 48 -154 84 -159 81 -5 -3 -29 -43 -55 -90 -25 -46 -50 -87 -55 -90 -12
-7 -2 24 15 45 18 23 85 141 85 149 0 4 -16 15 -35 24 -33 16 -35 16 -53 -4
-18 -19 -20 -19 -33 -2 -13 16 -12 17 3 5 15 -12 18 -10 23 15 11 51 32 87 89
157 31 38 55 74 53 80 -2 6 -13 12 -25 14 -31 5 -27 28 8 49 17 9 30 21 30 26
0 4 4 6 8 3 10 -6 54 27 91 68 45 49 121 80 113 45z m62 -30 c-10 -16 -22 -9
-27 16 -4 24 -3 25 14 9 10 -9 16 -21 13 -25z m1189 3 c-6 -16 -12 -19 -23
-12 -13 8 -12 11 5 24 24 18 28 15 18 -12z m51 -35 l-6 -53 35 4 c32 4 37 1
43 -23 4 -16 2 -42 -4 -59 -14 -37 -6 -73 21 -103 17 -19 21 -39 24 -133 2
-64 -1 -110 -6 -110 -5 0 -11 4 -13 9 -1 5 -21 12 -43 15 -22 3 -67 10 -100
15 -33 6 -119 11 -191 12 -212 2 -254 33 -254 190 0 92 4 99 80 139 l25 13
-24 -27 -24 -26 69 0 c133 0 289 -18 345 -39 65 -25 59 -25 59 -5 0 8 -17 31
-37 49 -33 30 -45 35 -90 35 -28 0 -54 -3 -56 -7 -7 -11 -117 -3 -117 8 0 5
27 9 59 9 33 0 62 4 66 9 3 5 20 7 38 4 24 -3 39 0 50 12 15 14 17 15 17 1 0
-9 5 -16 10 -16 6 0 10 26 10 58 0 52 5 72 17 72 2 0 0 -24 -3 -53z m-920 -36
c3 -5 -1 -14 -9 -21 -8 -7 -15 -8 -15 -3 0 6 -10 15 -22 21 -22 10 -21 11 9
11 17 1 34 -3 37 -8z m-2025 -31 c24 -11 54 -20 68 -20 14 0 38 -11 54 -25 17
-13 52 -36 80 -50 60 -30 169 -112 169 -127 0 -6 13 -8 33 -5 48 7 151 39 158
49 5 7 40 5 84 -6 51 -13 83 -23 163 -53 102 -38 138 -38 147 0 4 13 14 23 26
24 11 1 17 -3 13 -8 -3 -5 -1 -16 6 -24 9 -11 15 -11 38 1 37 19 102 19 102
-1 0 -18 20 -20 21 -2 0 10 2 10 6 0 2 -7 11 -13 19 -13 17 0 18 -23 3 -52 -8
-14 -8 -23 0 -31 13 -13 15 -30 2 -22 -6 3 -15 -3 -20 -14 -9 -16 -8 -18 9
-14 15 4 19 1 15 -9 -4 -9 0 -15 10 -15 8 0 15 5 14 11 -3 24 2 36 13 36 9 0
9 -3 0 -12 -9 -9 -9 -15 0 -26 8 -9 8 -16 2 -20 -12 -9 -72 -108 -109 -181
-22 -43 -24 -56 -13 -63 10 -7 9 -8 -5 -4 -13 4 -24 -8 -46 -52 -15 -31 -32
-67 -35 -80 -10 -30 28 -104 64 -125 26 -16 28 -16 34 0 4 9 2 19 -3 23 -21
12 -50 96 -43 121 10 33 50 106 62 114 17 10 11 -6 -21 -63 -33 -59 -34 -87
-4 -87 11 0 21 -8 23 -19 3 -14 0 -17 -12 -13 -20 8 -21 -3 -2 -28 7 -10 24
-19 37 -21 13 -1 27 -3 32 -3 4 -1 7 -8 7 -17 0 -8 4 -13 10 -9 14 8 122 -56
117 -69 -3 -8 5 -11 24 -8 22 3 29 0 29 -12 0 -21 36 -39 63 -30 12 4 29 7 37
6 25 -3 34 9 105 143 37 72 72 135 77 142 10 13 38 7 38 -9 0 -5 -4 -7 -9 -4
-13 8 -65 -85 -63 -111 1 -14 -4 -23 -13 -23 -8 0 -30 -31 -50 -69 -19 -38
-39 -72 -44 -75 -20 -13 -106 -24 -121 -16 -22 12 -46 -25 -29 -46 6 -7 14
-12 18 -9 16 10 -9 -107 -29 -135 -50 -70 -74 -67 -271 30 -90 44 -176 80
-191 80 -16 0 -40 -11 -57 -27 -26 -25 -102 -161 -132 -238 l-11 -30 -15 34
c-14 33 -13 39 23 130 21 53 93 205 160 338 l122 242 -24 16 c-14 9 -22 20
-19 25 4 6 -11 10 -34 10 -38 0 -41 2 -41 28 0 18 -3 23 -9 14 -11 -18 -81 -5
-81 14 0 8 -5 14 -11 14 -6 0 -9 9 -6 20 4 14 0 20 -11 20 -10 1 -4 7 13 14
27 11 24 12 -45 14 -141 3 -187 67 -86 117 12 6 27 24 35 40 8 17 18 32 23 33
9 4 11 72 2 72 -3 0 -14 -4 -24 -10 -12 -6 -29 -6 -50 1 -23 9 -34 9 -43 0 -6
-6 -19 -11 -29 -11 -10 0 -39 -15 -65 -33 -89 -62 -176 -71 -189 -21 -11 42
-31 50 -59 24 -14 -13 -25 -29 -25 -36 0 -7 -10 -25 -23 -41 -35 -42 -41 -64
-18 -70 30 -8 34 -32 9 -53 -20 -16 -26 -16 -48 -5 -23 12 -25 11 -42 -28 -10
-22 -21 -61 -24 -86 -7 -64 -13 -81 -29 -81 -7 0 -15 -5 -17 -12 -11 -32 -98
99 -98 148 0 8 -7 17 -15 20 -8 4 -15 14 -15 23 0 9 -23 40 -50 69 -31 32 -47
58 -44 67 4 9 0 15 -10 15 -11 0 -16 9 -16 28 0 15 -4 32 -8 37 -4 6 -14 27
-21 48 -11 34 -11 53 4 117 8 39 113 146 149 153 43 9 62 6 105 -13z m1725 -9
c3 -5 -1 -12 -10 -15 -25 -10 -34 -7 -34 9 0 16 35 21 44 6z m40 -42 c-8 -14
-24 -10 -24 6 0 9 6 12 15 9 8 -4 12 -10 9 -15z m147 -82 c-1 -12 -15 -9 -19
4 -3 6 1 10 8 8 6 -3 11 -8 11 -12z m49 -17 c0 -5 -4 -10 -10 -10 -5 0 -10 5
-10 10 0 6 5 10 10 10 6 0 10 -4 10 -10z m-2984 -283 c38 -52 41 -53 125 -32
23 6 30 1 55 -39 16 -25 32 -46 37 -46 12 0 8 -66 -7 -96 -8 -16 -19 -56 -25
-89 -5 -33 -18 -81 -29 -107 -17 -37 -27 -47 -52 -53 -22 -5 -36 -2 -49 9 -10
9 -21 13 -24 10 -4 -4 -9 1 -13 10 -4 10 -13 14 -23 11 -11 -3 -20 5 -29 25
-12 27 -15 28 -29 15 -13 -14 -13 -18 1 -40 9 -13 14 -30 12 -37 -20 -64 -20
-63 62 -104 42 -21 78 -39 80 -40 6 -3 -18 -83 -27 -88 -4 -3 -50 1 -102 9
-52 7 -112 16 -134 19 -41 5 -54 8 -90 22 -24 9 -22 8 -65 18 -19 5 -40 12
-45 17 -6 4 -20 8 -30 8 -44 1 -51 5 -50 27 0 13 7 32 15 42 30 36 60 81 60
89 0 9 123 221 140 240 6 7 15 23 20 35 5 13 21 41 35 63 14 22 30 50 37 63 6
12 14 22 18 22 4 0 15 20 24 44 16 43 19 44 42 34 14 -6 41 -34 60 -61z m3584
-179 c-9 -29 -9 -26 -5 22 3 30 6 93 7 140 2 83 2 82 5 -22 2 -59 -1 -122 -7
-140z m370 -9 c-9 -20 -10 -15 -5 25 3 27 6 83 7 125 2 68 3 66 5 -25 2 -56
-1 -111 -7 -125z m122 176 c-2 -14 -6 -25 -8 -25 -2 0 -4 11 -4 25 0 14 4 25
9 25 4 0 6 -11 3 -25z m88 -36 c71 -16 182 -60 218 -86 34 -25 41 -57 22 -93
-6 -10 -12 -36 -15 -57 -3 -21 -14 -72 -24 -113 -17 -73 -19 -75 -50 -78 -18
-2 -39 2 -47 8 -7 7 -20 10 -27 7 -19 -7 -58 28 -51 47 3 9 1 16 -5 16 -6 0
-11 12 -11 26 0 14 4 23 10 19 6 -3 10 -1 10 4 0 6 -7 11 -17 11 -16 0 -10 14
8 16 22 3 23 5 10 13 -20 13 -4 31 27 32 15 0 21 3 13 6 -11 4 -8 10 10 24 23
17 23 18 4 24 -76 26 -155 88 -155 122 0 10 -3 28 -6 41 -7 26 5 27 76 11z
m-1890 -31 c0 -6 -16 -33 -35 -59 -19 -27 -35 -57 -35 -67 0 -9 -4 -23 -9 -30
-6 -10 -10 -10 -20 1 -12 15 -5 47 9 47 9 0 25 40 22 53 -1 4 3 7 8 7 6 0 10
5 10 10 0 18 32 60 41 54 5 -3 9 -10 9 -16z m486 -82 c-5 -26 -39 -66 -56 -66
-12 0 -12 3 -4 24 3 9 12 16 19 16 13 0 30 28 27 43 -1 4 3 7 8 7 6 0 8 -11 6
-24z m1353 -12 l24 -17 -8 -182 -7 -182 35 -1 c19 -1 39 -2 43 -4 5 -1 32 1
60 5 28 4 59 4 69 1 27 -11 72 -122 78 -195 5 -52 3 -68 -12 -87 -18 -25 -68
-28 -63 -4 1 6 -7 12 -18 12 -11 0 -20 7 -20 15 0 20 -5 19 -41 -7 -29 -22
-31 -22 -78 -5 -78 28 -77 29 -91 -80 -20 -167 -49 -305 -67 -325 -25 -28 -46
-23 -39 10 3 15 7 73 8 129 3 99 2 103 -23 129 -25 25 -38 28 -205 45 -99 11
-192 25 -207 31 -38 15 -61 61 -53 109 7 42 56 143 56 115 0 -10 6 -16 13 -14
15 6 22 58 8 58 -18 0 -24 4 -65 41 l-39 37 6 91 c3 56 2 89 -4 86 -5 -4 -9
-1 -9 4 0 6 5 11 11 11 8 0 10 23 7 75 -3 41 -1 72 4 69 4 -3 8 2 8 10 0 9 5
16 11 16 8 0 10 -18 5 -57 -3 -32 -9 -114 -12 -183 l-7 -126 38 -28 c35 -27
41 -28 77 -19 30 8 38 8 38 -3 0 -16 12 -18 25 -5 6 4 42 5 80 1 39 -5 74 -4
79 0 5 5 19 2 33 -7 19 -13 29 -14 48 -5 16 8 25 8 25 2 0 -6 -13 -13 -30 -16
-20 -5 -30 -12 -30 -25 0 -16 6 -17 53 -13 39 5 58 13 78 33 23 24 27 40 37
152 7 68 15 168 19 222 6 102 11 109 52 81z m-104 -91 c-4 -49 -7 -104 -6
-123 1 -26 -2 -31 -9 -20 -5 8 -7 56 -4 110 5 99 9 120 20 120 4 0 4 -39 -1
-87z m-1852 52 c-3 -9 -8 -14 -10 -11 -3 3 -2 9 2 15 9 16 15 13 8 -4z m1840
-319 c-5 -22 -15 -42 -23 -44 -12 -4 -13 -2 -2 9 6 7 12 36 12 64 0 29 3 55 8
59 11 12 14 -44 5 -88z m-443 29 c7 -9 8 -15 2 -15 -5 0 -12 7 -16 15 -3 8 -4
15 -2 15 2 0 9 -7 16 -15z m2108 -4 c27 -24 27 -25 0 -61 -17 -24 -29 -30 -59
-30 -38 0 -49 12 -49 52 0 26 36 58 64 58 12 -1 31 -9 44 -19z m-5233 -115 c9
-80 0 -126 -25 -126 -29 0 -39 21 -30 65 15 73 32 125 40 125 5 0 11 -29 15
-64z m2045 44 c0 -5 -2 -10 -4 -10 -3 0 -8 5 -11 10 -3 6 -1 10 4 10 6 0 11
-4 11 -10z m4980 -140 c0 -5 -5 -10 -11 -10 -5 0 -7 5 -4 10 3 6 8 10 11 10 2
0 4 -4 4 -10z m-9366 -65 c-3 -6 -42 -29 -87 -50 -46 -23 -82 -47 -83 -55 -3
-42 -4 -43 -40 -37 -28 5 -35 3 -30 -8 3 -9 -13 -25 -44 -45 -49 -32 -71 -60
-45 -60 7 0 17 5 20 11 4 6 19 7 35 4 16 -3 31 -2 35 4 10 18 43 13 54 -8 9
-17 20 -19 79 -15 38 2 82 10 98 19 16 8 37 15 47 15 9 0 17 5 17 10 0 6 7 10
15 10 8 0 15 -7 15 -16 0 -8 4 -13 9 -10 5 3 11 -4 14 -16 4 -13 1 -26 -6 -30
-7 -4 -9 -8 -4 -8 4 0 -2 -9 -13 -20 -27 -27 -130 -82 -130 -70 0 6 -11 10
-25 10 -20 0 -25 5 -25 25 0 20 -5 25 -25 25 -14 0 -37 -11 -51 -25 -14 -14
-29 -25 -34 -25 -6 0 -10 -4 -10 -8 0 -10 -94 -56 -147 -72 -23 -7 -44 -19
-47 -27 -5 -11 -10 -11 -27 -3 -11 7 -18 14 -15 17 2 3 -4 15 -15 26 -36 39
-82 131 -87 173 -3 35 0 45 24 67 15 14 48 33 73 43 25 9 69 29 96 44 28 14
73 34 100 44 28 10 77 32 109 48 93 46 165 53 150 13z m5361 -300 l-7 -154 32
-28 c40 -33 70 -44 88 -30 10 8 19 7 32 -1 14 -8 20 -8 22 0 5 14 118 12 132
-2 5 -5 15 -6 23 -3 8 3 25 0 39 -7 26 -15 46 -8 94 31 25 21 28 40 30 187 0
12 4 22 10 22 13 0 8 -210 -5 -210 -18 -1 -81 -59 -64 -60 9 0 28 12 43 26 26
26 35 23 16 -6 -8 -12 -1 -16 42 -20 34 -3 53 -10 56 -20 4 -12 2 -13 -9 -2
-14 13 -39 16 -39 5 0 -5 14 -16 30 -25 24 -14 30 -24 30 -51 l0 -34 66 -7
c82 -8 145 -29 206 -68 53 -33 133 -127 120 -140 -4 -4 -126 -13 -271 -20
-316 -14 -742 3 -774 30 -15 13 -15 18 -3 31 9 11 16 56 20 134 3 64 10 125
15 135 5 9 12 25 15 35 3 10 14 17 23 16 36 -3 36 2 1 39 -35 35 -37 41 -38
107 -1 39 2 87 6 109 5 28 3 40 -7 47 -10 6 -10 9 -1 9 7 0 12 15 12 40 0 23
5 40 11 40 8 0 9 -44 4 -155z m-5515 75 c0 -5 -5 -10 -11 -10 -5 0 -7 5 -4 10
3 6 8 10 11 10 2 0 4 -4 4 -10z m10820 -265 c0 -18 -34 -27 -90 -23 -42 3 -43
4 -26 21 23 22 116 25 116 2z m-35 -74 c-14 -13 -98 -40 -108 -34 -4 2 -2 13
3 24 9 15 21 19 62 19 31 0 48 -4 43 -9z"/>
<path d="M4833 6095 c-23 -10 -31 -19 -27 -29 6 -17 26 -21 38 -8 4 4 13 7 19
7 7 0 13 10 15 23 4 25 -1 26 -45 7z"/>
<path d="M5120 5734 c0 -3 7 -12 15 -20 16 -17 18 -14 9 10 -6 15 -24 23 -24
10z"/>
<path d="M4672 5708 c2 -42 8 -73 14 -75 26 -8 23 131 -2 141 -12 5 -14 -7
-12 -66z m15 0 c-3 -8 -6 -5 -6 6 -1 11 2 17 5 13 3 -3 4 -12 1 -19z"/>
<path d="M6546 4971 c-79 -28 -71 -41 26 -41 59 0 90 4 104 15 19 14 19 14 -2
15 -12 0 -27 7 -34 15 -16 19 -32 18 -94 -4z"/>
<path d="M6870 4856 c0 -2 8 -10 18 -17 15 -13 16 -12 3 4 -13 16 -21 21 -21
13z"/>
<path d="M12376 5091 c-4 -7 -5 -15 -2 -18 9 -9 19 4 14 18 -4 11 -6 11 -12 0z"/>
<path d="M9885 4151 c-3 -6 -10 -9 -15 -6 -5 3 -11 1 -14 -4 -4 -5 -1 -13 5
-16 12 -8 47 21 37 30 -3 4 -9 1 -13 -4z"/>
<path d="M9837 4064 c3 -7 9 -14 14 -14 14 0 10 17 -5 23 -10 4 -13 1 -9 -9z"/>
<path d="M9473 3933 c4 -3 2 -12 -3 -18 -8 -9 -6 -15 6 -19 23 -9 36 13 19 31
-8 7 -17 13 -21 13 -4 0 -4 -3 -1 -7z"/>
<path d="M9530 3900 c0 -5 7 -10 16 -10 8 0 12 5 9 10 -3 6 -10 10 -16 10 -5
0 -9 -4 -9 -10z"/>
<path d="M6845 4339 c-4 -11 -5 -21 -3 -23 13 -8 118 -79 136 -93 20 -14 25
-14 33 -2 5 8 9 20 9 27 0 12 -143 112 -161 112 -4 0 -11 -9 -14 -21z"/>
<path d="M6445 4336 c-11 -7 -51 -30 -90 -51 -87 -47 -86 -46 -70 -69 13 -18
17 -17 89 28 98 61 121 80 112 94 -9 15 -17 15 -41 -2z"/>
<path d="M6830 4247 c-11 -19 -9 -24 26 -54 22 -19 51 -43 66 -54 l27 -20 11
21 c6 12 10 25 8 30 -2 4 -30 28 -64 53 -59 44 -61 44 -74 24z"/>
<path d="M4870 4580 c0 -13 20 -13 40 0 12 8 9 10 -12 10 -16 0 -28 -4 -28
-10z"/>
<path d="M7606 4081 c-3 -5 8 -14 25 -21 27 -12 33 -11 52 8 l21 22 -46 0
c-26 0 -49 -4 -52 -9z"/>
<path d="M7694 4059 c-10 -12 -31 -27 -46 -35 -34 -18 -36 -34 -4 -34 13 0 45
-9 71 -20 57 -25 73 -25 104 -1 22 17 23 20 9 40 -8 11 -18 18 -22 14 -4 -4
-4 0 0 10 4 12 1 17 -12 17 -11 0 -28 7 -38 15 -27 20 -39 19 -62 -6z"/>
<path d="M7560 4040 c0 -13 38 -32 51 -24 6 3 -1 12 -16 20 -32 17 -35 17 -35
4z"/>
<path d="M7770 3723 c-47 -8 -132 -43 -166 -69 -35 -28 -41 -26 -24 7 6 10 7
19 2 19 -13 0 -28 -20 -37 -49 -6 -18 -4 -22 6 -15 8 4 28 7 45 5 27 -2 92 25
117 49 8 7 57 -10 57 -20 0 -3 -18 -15 -40 -28 -22 -12 -40 -26 -40 -31 0 -5
12 -16 26 -25 24 -17 27 -16 75 15 27 17 85 44 129 59 l79 27 -37 17 c-34 15
-42 15 -86 2 -36 -11 -53 -12 -63 -4 -17 14 -16 28 2 28 8 0 15 5 15 10 0 10
-14 11 -60 3z"/>
<path d="M12145 4123 c-11 -3 -30 -15 -41 -27 l-21 -22 44 -13 c39 -12 46 -12
63 4 24 22 26 51 4 59 -17 6 -18 6 -49 -1z"/>
<path d="M5497 3632 c-9 -2 -15 -8 -12 -12 9 -14 -40 -23 -88 -16 -30 4 -51 0
-76 -13 l-34 -18 59 -11 c33 -6 89 -24 123 -41 60 -29 65 -30 93 -15 33 17 33
18 -19 50 l-38 22 39 7 c29 6 48 3 81 -14 23 -11 53 -21 67 -21 13 0 29 -5 36
-12 18 -18 27 -1 14 27 -12 25 -42 35 -42 13 0 -7 -6 -6 -17 4 -10 9 -29 18
-43 21 -14 3 -47 12 -75 19 -27 8 -58 12 -68 10z"/>
<path d="M7020 3649 c0 -5 5 -7 10 -4 6 3 10 8 10 11 0 2 -4 4 -10 4 -5 0 -10
-5 -10 -11z"/>
<path d="M7160 3625 c0 -17 5 -25 13 -22 6 2 12 12 12 22 0 10 -6 20 -12 23
-8 2 -13 -6 -13 -23z"/>
<path d="M7230 3640 c0 -5 5 -10 11 -10 5 0 7 5 4 10 -3 6 -8 10 -11 10 -2 0
-4 -4 -4 -10z"/>
<path d="M5884 2312 c-16 -10 -28 -52 -15 -52 12 0 34 37 29 50 -2 5 -8 6 -14
2z"/>
<path d="M5891 2161 l-41 -49 47 -16 c26 -9 101 -46 166 -82 l118 -65 27 32
c37 44 55 70 51 73 -16 13 -229 130 -256 141 -54 23 -68 19 -112 -34z"/>
<path d="M6890 2202 l0 -39 163 -11 c89 -6 172 -14 185 -18 19 -5 22 -3 22 20
0 17 -4 25 -11 20 -7 -4 -9 0 -5 14 6 18 0 21 -61 31 -37 5 -119 13 -180 16
l-113 6 0 -39z"/>
<path d="M5530 2050 c-8 -26 -7 -41 2 -32 6 6 8 16 5 24 -3 7 -6 11 -7 8z"/>
<path d="M5496 1894 c-9 -8 -16 -20 -16 -26 0 -6 1 -9 3 -7 1 2 11 14 21 27
22 25 16 30 -8 6z"/>
<path d="M5451 1838 c5 -10 11 -18 12 -18 2 0 3 8 3 18 0 10 -6 19 -13 19 -8
0 -9 -6 -2 -19z"/>
<path d="M5353 1708 c-3 -7 -1 -8 5 -4 7 4 12 2 12 -4 0 -13 21 -9 23 4 3 13
-32 16 -40 4z"/>
<path d="M3421 1671 c-16 -10 -6 -31 14 -31 14 0 27 24 18 34 -8 8 -15 7 -32
-3z"/>
<path d="M3235 1520 c3 -5 13 -10 21 -10 8 0 12 5 9 10 -3 6 -13 10 -21 10 -8
0 -12 -4 -9 -10z"/>
<path d="M7507 1283 c-18 -5 -18 -5 0 -19 24 -18 63 -18 63 0 0 8 -7 17 -16
20 -17 6 -19 6 -47 -1z"/>
<path d="M1198 983 c7 -3 16 -2 19 1 4 3 -2 6 -13 5 -11 0 -14 -3 -6 -6z"/>
<path d="M6786 544 c-4 -10 -1 -14 6 -12 15 5 23 28 10 28 -5 0 -13 -7 -16
-16z"/>
<path d="M6997 534 c-4 -4 34 -29 83 -56 83 -44 96 -48 160 -48 69 0 70 0 53
20 -13 15 -30 20 -65 20 -43 0 -49 3 -63 30 -15 28 -19 30 -74 30 -33 0 -66 2
-73 5 -8 3 -17 2 -21 -1z"/>
<path d="M6773 495 c-9 -25 2 -27 22 -5 17 18 17 20 1 20 -9 0 -19 -7 -23 -15z"/>
<path d="M7318 495 c-2 -3 -3 -18 0 -35 5 -36 37 -42 45 -8 9 32 -24 63 -45
43z"/>
<path d="M6897 473 c-12 -11 -8 -23 8 -23 8 0 15 7 15 15 0 16 -12 20 -23 8z"/>
<path d="M6857 412 c-30 -33 -13 -72 19 -43 5 5 26 14 47 21 39 12 47 24 21
34 -30 12 -71 6 -87 -12z"/>
<path d="M6794 369 c-10 -17 13 -36 27 -22 12 12 4 33 -11 33 -5 0 -12 -5 -16
-11z"/>
<path d="M7520 7310 c0 -5 5 -10 11 -10 5 0 7 5 4 10 -3 6 -8 10 -11 10 -2 0
-4 -4 -4 -10z"/>
<path d="M7535 7279 c4 -6 10 -8 13 -5 3 3 11 1 19 -5 8 -7 13 -8 13 -1 0 5
-7 13 -16 16 -24 9 -36 7 -29 -5z"/>
<path d="M880 4620 c0 -5 5 -10 10 -10 6 0 10 5 10 10 0 6 -4 10 -10 10 -5 0
-10 -4 -10 -10z"/>
<path d="M590 4560 c0 -5 4 -10 9 -10 6 0 13 5 16 10 3 6 -1 10 -9 10 -9 0
-16 -4 -16 -10z"/>
<path d="M4965 800 c-3 -5 1 -10 9 -10 9 0 16 5 16 10 0 6 -4 10 -9 10 -6 0
-13 -4 -16 -10z"/>
<path d="M5080 776 c0 -8 7 -16 15 -20 13 -4 14 -2 5 14 -13 23 -20 26 -20 6z"/>
<path d="M5619 748 c-21 -42 -23 -48 -11 -48 5 0 15 11 22 25 7 13 17 22 21
19 4 -2 13 4 18 15 15 27 14 30 -10 28 -13 -1 -28 -15 -40 -39z"/>
<path d="M4922 748 c2 -13 10 -23 18 -23 8 0 16 10 18 23 3 17 -2 22 -18 22
-16 0 -21 -5 -18 -22z"/>
<path d="M5205 720 c-3 -5 -1 -10 4 -10 6 0 11 5 11 10 0 6 -2 10 -4 10 -3 0
-8 -4 -11 -10z"/>
<path d="M4868 682 c-9 -20 -33 -65 -53 -98 l-36 -62 48 -27 c70 -39 126 -36
197 11 30 20 57 43 60 51 3 8 10 12 16 8 11 -7 50 16 50 30 0 5 16 11 36 12
44 2 51 8 31 27 -8 8 -17 12 -21 9 -3 -4 -6 2 -6 13 0 16 -2 17 -10 4 -8 -13
-11 -11 -16 8 -7 24 -41 30 -75 12 -15 -9 -28 -6 -60 13 -35 21 -45 23 -70 14
-22 -9 -34 -9 -49 1 -25 16 -22 17 -42 -26z m145 -63 c-9 -16 -21 -25 -26 -22
-6 3 -7 1 -3 -5 3 -6 -3 -26 -15 -46 -18 -30 -24 -34 -40 -25 -11 5 -18 13
-16 17 2 4 21 35 41 69 33 56 39 61 56 51 18 -11 18 -14 3 -39z"/>
<path d="M5565 653 c-31 -56 -28 -81 4 -30 12 20 26 37 31 37 15 0 19 28 5 34
-9 3 -23 -12 -40 -41z"/>
<path d="M5337 656 c-6 -15 1 -26 15 -26 11 0 10 27 -1 34 -5 3 -11 0 -14 -8z"/>
<path d="M5390 610 c0 -5 5 -10 11 -10 5 0 7 5 4 10 -3 6 -8 10 -11 10 -2 0
-4 -4 -4 -10z"/>
<path d="M5430 543 c0 -16 7 -37 15 -47 13 -17 13 -23 -5 -54 -12 -20 -20 -48
-18 -69 2 -37 18 -58 18 -24 0 11 11 54 25 95 28 85 29 86 15 86 -5 0 -10 -7
-10 -15 0 -26 -17 -16 -23 12 -3 16 0 31 6 35 8 5 6 8 -5 8 -13 0 -18 -8 -18
-27z"/>
<path d="M5225 540 c-3 -5 1 -10 9 -10 9 0 16 5 16 10 0 6 -4 10 -9 10 -6 0
-13 -4 -16 -10z"/>
<path d="M4438 505 c-10 -13 -18 -33 -18 -44 0 -17 6 -20 35 -19 41 1 47 13
29 56 -16 38 -23 39 -46 7z"/>
<path d="M5663 498 c-41 -20 -17 -97 25 -84 37 12 45 31 27 65 -17 34 -19 35
-52 19z"/>
<path d="M5196 487 c-15 -11 -10 -15 48 -33 62 -19 66 -20 66 -3 0 39 -76 64
-114 36z"/>
<path d="M5410 470 c0 -18 4 -29 10 -25 6 3 10 15 10 25 0 10 -4 22 -10 25 -6
4 -10 -7 -10 -25z"/>
<path d="M5351 434 c0 -11 3 -14 6 -6 3 7 2 16 -1 19 -3 4 -6 -2 -5 -13z"/>
<path d="M4260 322 c-43 -6 -70 -40 -70 -87 0 -67 64 -110 129 -87 36 13 41 3
41 -70 l0 -51 393 6 c481 8 758 29 779 59 12 17 0 145 -15 170 -13 21 -16 21
-347 -9 -111 -11 -283 -17 -472 -17 -223 -1 -300 -4 -309 -13 -7 -7 -23 -13
-36 -13 -13 0 -26 -7 -29 -15 -4 -9 -19 -15 -39 -15 -25 0 -34 5 -39 23 -11
41 -6 66 15 80 21 15 59 12 59 -4 0 -5 11 -9 25 -9 26 0 35 23 14 36 -19 11
-72 20 -99 16z"/>
<path d="M4390 315 c0 -9 9 -15 24 -15 13 0 29 7 36 15 11 13 7 15 -24 15 -25
0 -36 -4 -36 -15z"/>
<path d="M4063 313 c-52 -4 -53 -5 -53 -36 0 -18 3 -56 6 -85 l7 -52 73 0 c59
0 74 3 74 15 0 11 -12 15 -50 15 -42 0 -50 3 -50 19 0 21 19 31 56 31 15 0 24
6 24 16 0 13 -7 15 -39 9 -29 -5 -40 -3 -44 9 -8 21 12 34 58 38 22 2 39 8 38
13 -3 11 -26 13 -100 8z"/>
<path d="M5733 308 c-35 -44 -36 -59 -4 -98 20 -25 31 -50 31 -70 0 -28 3 -31
28 -28 27 3 27 4 23 68 -4 87 -20 134 -47 138 -11 2 -25 -3 -31 -10z"/>
<path d="M3653 296 c-40 -18 -57 -49 -49 -90 10 -51 45 -78 102 -78 40 0 53 5
71 27 68 79 -25 185 -124 141z m86 -48 c30 -53 -21 -114 -65 -78 -20 18 -18
86 4 99 25 16 44 9 61 -21z"/>
<path d="M3920 240 c0 -56 -3 -72 -16 -77 -9 -3 -19 0 -24 6 -4 7 -20 11 -36
9 l-29 -3 23 -22 c15 -16 34 -23 62 -23 70 0 91 39 74 143 -6 31 -11 37 -30
37 -23 0 -24 -3 -24 -70z"/>
<path d="M3050 292 c-16 -2 -32 -15 -43 -34 -14 -25 -20 -28 -32 -18 -8 6 -17
20 -20 31 -4 13 -16 19 -36 19 -16 0 -29 -3 -29 -6 0 -4 16 -28 35 -54 22 -30
35 -59 35 -79 0 -26 4 -31 25 -31 21 0 25 5 25 27 0 15 16 54 36 86 20 32 34
59 33 60 -2 2 -15 1 -29 -1z"/>
<path d="M3197 293 c-4 -3 -7 -44 -7 -90 0 -82 0 -83 25 -83 21 0 25 5 25 29
0 26 3 29 45 33 56 7 75 22 75 60 0 24 -6 32 -35 44 -35 14 -116 19 -128 7z
m103 -33 c22 -14 0 -44 -34 -48 -22 -3 -26 1 -26 21 0 13 3 27 7 30 9 10 35 8
53 -3z"/>
<path d="M3402 213 c3 -83 4 -88 26 -91 19 -3 22 1 22 27 0 44 19 49 50 13 15
-18 36 -32 48 -32 26 0 27 8 6 38 -15 21 -15 25 0 41 22 24 20 68 -3 81 -11 5
-49 10 -86 10 l-66 0 3 -87z m113 32 c0 -15 -8 -21 -32 -23 -27 -3 -33 0 -33
16 0 26 10 33 40 30 17 -2 25 -9 25 -23z"/>
<path d="M2624 275 c-3 -7 -4 -45 -2 -86 3 -68 5 -74 26 -77 24 -4 26 4 23 68
l-2 35 20 -25 c11 -14 21 -30 21 -37 0 -14 28 -43 42 -43 5 0 19 23 31 50 11
28 25 50 29 50 4 0 8 -20 8 -45 0 -41 2 -45 25 -45 25 0 25 1 25 85 l0 85 -36
0 c-33 0 -37 -3 -60 -55 -14 -30 -28 -55 -30 -55 -3 0 -16 24 -29 54 -22 50
-27 55 -55 54 -18 -1 -34 -6 -36 -13z"/>
<path d="M1627 273 c-5 -7 -10 -113 -8 -150 1 -9 22 -13 71 -13 57 0 74 4 91
21 18 18 19 23 6 42 -10 16 -11 28 -4 45 16 36 -11 55 -87 60 -35 2 -66 0 -69
-5z m103 -43 c0 -16 -7 -20 -30 -20 -18 0 -30 5 -30 13 0 20 10 27 37 27 16 0
23 -6 23 -20z m8 -67 c-2 -12 -14 -19 -36 -21 -27 -3 -32 0 -32 17 0 17 6 21
36 21 28 0 35 -3 32 -17z"/>
<path d="M1837 274 c-4 -4 -7 -36 -7 -70 0 -57 3 -65 25 -80 34 -22 122 -15
142 12 7 10 13 44 13 82 0 60 -1 63 -22 60 -20 -3 -24 -10 -28 -62 -6 -66 -26
-90 -57 -70 -14 9 -18 26 -19 70 -1 50 -4 59 -20 62 -11 2 -23 0 -27 -4z"/>
<path d="M2057 274 c-4 -4 -7 -43 -7 -86 l0 -79 28 3 c27 3 27 3 27 83 0 73
-2 80 -20 83 -12 2 -24 0 -28 -4z"/>
<path d="M2157 273 c-4 -3 -7 -42 -7 -85 l0 -78 75 0 c60 0 75 3 75 15 0 11
-12 15 -50 15 l-50 0 0 70 c0 61 -2 70 -18 70 -10 0 -22 -3 -25 -7z"/>
<path d="M2330 195 l0 -85 45 0 c61 0 113 23 125 55 15 41 12 54 -19 86 -26
26 -36 29 -90 29 l-61 0 0 -85z m108 43 c30 -30 3 -98 -39 -98 -16 0 -19 7
-19 55 0 51 2 55 23 55 13 0 28 -5 35 -12z"/>
<path d="M5555 129 c-8 -12 14 -31 30 -26 6 2 10 10 10 18 0 17 -31 24 -40 8z"/>
</g>
</svg>
